<svg width="48" height="48" viewBox="0 0 48 48" fill="none" xmlns="http://www.w3.org/2000/svg">
<path d="M29.7413 17.1554C30.1033 17.5725 30.7349 17.6173 31.152 17.2553C31.5692 16.8933 31.6139 16.2618 31.2519 15.8446L29.7413 17.1554ZM18.2587 30.8446C17.8968 30.4275 17.2652 30.3827 16.848 30.7447C16.4309 31.1067 16.3862 31.7382 16.7481 32.1554L18.2587 30.8446ZM25 11.5C25 10.9477 24.5523 10.5 24 10.5C23.4477 10.5 23 10.9477 23 11.5H25ZM23 36.5C23 37.0523 23.4477 37.5 24 37.5C24.5523 37.5 25 37.0523 25 36.5L23 36.5ZM46.5 24H45.5C45.5 35.8741 35.8741 45.5 24 45.5V46.5V47.5C36.9787 47.5 47.5 36.9787 47.5 24H46.5ZM24 46.5V45.5C12.1259 45.5 2.5 35.8741 2.5 24H1.5H0.5C0.5 36.9787 11.0213 47.5 24 47.5V46.5ZM1.5 24H2.5C2.5 12.1259 12.1259 2.5 24 2.5V1.5V0.5C11.0213 0.5 0.5 11.0213 0.5 24H1.5ZM24 1.5V2.5C35.8741 2.5 45.5 12.1259 45.5 24H46.5H47.5C47.5 11.0213 36.9787 0.5 24 0.5V1.5ZM24 24V23C22.0988 23 20.4229 22.4845 19.2514 21.7035C18.0729 20.9179 17.5 19.9423 17.5 19H16.5H15.5C15.5 20.8191 16.606 22.3436 18.142 23.3676C19.685 24.3963 21.759 25 24 25V24ZM16.5 19H17.5C17.5 18.0577 18.0729 17.0821 19.2514 16.2965C20.4229 15.5155 22.0988 15 24 15V14V13C21.759 13 19.685 13.6037 18.142 14.6324C16.606 15.6564 15.5 17.1809 15.5 19H16.5ZM24 14V15C26.5694 15 28.6829 15.9356 29.7413 17.1554L30.4966 16.5L31.2519 15.8446C29.7168 14.0754 26.9827 13 24 13V14ZM24 24V25C25.9012 25 27.5772 25.5155 28.7486 26.2965C29.9271 27.0822 30.5001 28.0577 30.5001 29H31.5001H32.5001C32.5001 27.1809 31.394 25.6564 29.858 24.6324C28.315 23.6037 26.241 23 24 23V24ZM24 11.5H23V14H24H25V11.5H24ZM24.0001 34L23.0001 34L23 36.5L24 36.5L25 36.5L25.0001 34L24.0001 34ZM24.0001 34L24.0001 33C21.4307 33 19.3171 32.0644 18.2587 30.8446L17.5034 31.5L16.7481 32.1554C18.2833 33.9246 21.0174 35 24 35L24.0001 34ZM31.5001 29H30.5001C30.5001 29.9423 29.9271 30.9179 28.7487 31.7035C27.5772 32.4845 25.9012 33 24.0001 33V34V35C26.241 35 28.315 34.3963 29.8581 33.3676C31.3941 32.3436 32.5001 30.8191 32.5001 29H31.5001ZM24 14L23 14L23.0001 34L24.0001 34L25.0001 34L25 14L24 14Z" fill="black"/>
</svg>
